<svg aria-hidden="true" focusable="false" data-prefix="fad" data-icon="chess-pawn-alt" role="img" xmlns="http://www.w3.org/2000/svg" viewBox="0 0 256 512" class="svg-inline--fa fa-chess-pawn-alt fa-w-8 fa-3x"><g class="fa-group"><path fill="currentColor" d="M247.16 459.58L224 448v-16a16 16 0 0 0-16-16H48a16 16 0 0 0-16 16v16L8.85 459.58A16 16 0 0 0 0 473.89V496a16 16 0 0 0 16 16h224a16 16 0 0 0 16-16v-22.11a16 16 0 0 0-8.84-14.31z" class="fa-secondary"></path><path fill="currentColor" d="M64 288h14.89A535.84 535.84 0 0 1 64 384h128a535.84 535.84 0 0 1-14.89-96H192a16 16 0 0 0 16-16v-16a16 16 0 0 0-16-16h-16.44a80 80 0 1 0-95.12 0H64a16 16 0 0 0-16 16v16a16 16 0 0 0 16 16z" class="fa-primary"></path></g></svg>